<?xml version="1.0" standalone="no"?>
<!DOCTYPE svg PUBLIC "-//W3C//DTD SVG 20010904//EN"
 "http://www.w3.org/TR/2001/REC-SVG-20010904/DTD/svg10.dtd">
<svg version="1.0" xmlns="http://www.w3.org/2000/svg"
 width="400.000000pt" height="160.000000pt" viewBox="0 0 400.000000 160.000000"
 preserveAspectRatio="xMidYMid meet">

<g transform="translate(0.000000,160.000000) scale(0.100000,-0.100000)"
fill="#000000" stroke="none">
<path d="M3265 1554 c-55 -9 -139 -36 -189 -61 -58 -29 -156 -101 -156 -114 0
-5 15 -22 32 -38 l33 -29 40 32 c95 75 193 112 308 115 118 3 255 -46 336
-119 l32 -30 35 33 35 32 -33 32 c-48 46 -144 101 -215 123 -62 19 -203 32
-258 24z"/>
<path d="M2860 1333 c-17 -21 -44 -66 -60 -99 -85 -176 -85 -378 -1 -541 48
-93 43 -90 97 -53 27 18 50 34 52 36 2 1 -8 20 -22 41 -50 75 -47 144 5 162
39 14 152 14 197 1 30 -8 33 -7 27 8 -20 53 -16 107 12 162 l28 56 -115 -33
c-160 -45 -200 -43 -200 14 0 29 41 118 74 162 14 19 26 38 26 42 0 4 -20 23
-44 43 l-44 36 -32 -37z"/>
<path d="M3770 1349 c-14 -12 -36 -30 -49 -40 l-23 -19 27 -32 c34 -40 85
-145 85 -175 0 -12 -9 -28 -21 -36 -23 -16 -34 -15 -196 31 -57 16 -103 28
-103 26 0 -2 11 -19 24 -39 33 -48 41 -101 23 -153 l-15 -42 27 8 c14 4 67 7
117 7 76 0 95 -3 113 -19 29 -26 26 -64 -9 -131 -16 -31 -30 -58 -30 -60 0 -2
22 -17 50 -34 l50 -31 25 38 c13 20 36 69 51 107 36 93 45 257 19 355 -19 73
-72 181 -113 228 l-27 32 -25 -21z"/>
<path d="M1191 1215 c-211 -48 -351 -183 -408 -395 -24 -90 -24 -319 1 -410
72 -265 275 -392 601 -377 66 3 140 12 165 19 l45 14 13 132 c8 73 11 140 8
148 -5 12 -14 15 -34 10 -63 -15 -201 -34 -218 -31 -11 2 -36 7 -57 10 -45 7
-101 53 -127 105 -28 54 -43 161 -38 260 11 186 85 254 256 237 30 -3 84 -16
119 -28 39 -14 67 -19 72 -13 8 8 61 254 61 280 0 40 -332 68 -459 39z"/>
<path d="M1842 638 c-95 -315 -173 -576 -172 -581 0 -4 78 -6 173 -5 l172 3
15 92 14 92 51 6 c27 3 102 5 165 3 l115 -3 16 -95 15 -95 183 -3 c171 -2 182
-1 177 15 -3 10 -33 119 -67 243 -34 124 -103 376 -153 560 l-92 335 -220 3
-219 2 -173 -572z m403 230 c2 -13 18 -90 35 -173 17 -82 33 -158 36 -167 5
-16 -4 -18 -95 -18 -70 0 -101 4 -101 12 0 6 21 92 47 190 46 172 65 212 78
156z"/>
<path d="M3325 1145 c-5 -2 -22 -6 -37 -9 -37 -8 -98 -63 -114 -103 -26 -61
-11 -147 34 -196 51 -57 145 -72 220 -36 158 77 118 314 -58 342 -19 3 -39 4
-45 2z"/>
<path d="M330 929 c-113 -32 -222 -63 -242 -69 l-38 -11 0 -138 c0 -99 4 -141
12 -149 9 -7 39 -4 96 8 74 16 84 16 89 3 6 -15 -2 -275 -14 -435 l-6 -88 181
0 182 0 -5 28 c-12 75 -14 395 -5 615 11 259 10 266 -29 286 -10 5 -96 -15
-221 -50z"/>
<path d="M3250 779 c0 -2 7 -26 15 -53 8 -27 15 -74 15 -103 0 -47 -4 -59 -29
-84 -16 -16 -38 -29 -48 -30 -10 0 5 -7 32 -15 60 -16 152 -17 220 0 l50 12
-33 8 c-22 5 -38 18 -48 38 -20 38 -20 121 0 179 8 24 14 45 12 46 -1 2 -17
-2 -35 -8 -32 -11 -99 -8 -133 6 -10 4 -18 6 -18 4z"/>
<path d="M2910 629 c-19 -12 -37 -23 -39 -25 -3 -2 8 -17 24 -34 l28 -29 -7
-208 c-4 -114 -10 -225 -13 -245 l-6 -38 183 0 183 0 -8 160 -7 161 67 -3 68
-3 71 -151 c39 -83 78 -159 86 -169 12 -15 25 -17 85 -11 38 3 111 15 160 25
158 34 168 44 116 110 -15 20 -69 96 -119 169 l-91 133 66 65 67 65 -43 26
-43 25 -46 -45 c-102 -98 -208 -140 -352 -140 -78 1 -107 5 -163 26 -76 30
-140 70 -188 122 -18 19 -36 35 -39 35 -3 0 -21 -10 -40 -21z"/>
</g>
</svg>
